<?xml version="1.0" standalone="no"?>
<!DOCTYPE svg PUBLIC "-//W3C//DTD SVG 20010904//EN"
 "http://www.w3.org/TR/2001/REC-SVG-20010904/DTD/svg10.dtd">
<svg version="1.0" xmlns="http://www.w3.org/2000/svg"
 width="263.000000pt" height="270.000000pt" viewBox="0 0 263.000000 270.000000"
 preserveAspectRatio="xMidYMid meet">

<g transform="translate(0.000000,270.000000) scale(0.100000,-0.100000)"
fill="#000000" stroke="none">
<path d="M0 1350 l0 -1351 88 3 87 3 -3 30 c-2 22 4 37 23 55 25 23 33 54 16
64 -20 12 4 180 31 216 25 34 48 122 50 188 0 29 4 55 9 58 5 2 3 15 -2 28 -8
17 -8 30 2 47 18 33 19 61 3 84 -8 11 -14 28 -14 39 0 11 -10 40 -22 65 -14
29 -23 67 -24 107 -3 83 -13 125 -35 143 -10 9 -22 33 -28 54 -8 30 -6 40 7
53 13 13 14 21 4 47 -15 40 2 77 42 90 17 6 55 34 85 63 30 30 58 54 63 54 15
0 8 26 -13 49 -28 30 -30 98 -4 132 21 27 42 27 61 0 9 -11 8 -18 -3 -29 -12
-12 -12 -16 -1 -23 7 -5 9 -9 4 -9 -5 0 -3 -7 4 -16 8 -8 9 -14 4 -13 -5 1
-17 -1 -27 -6 -17 -7 -17 -8 3 -22 13 -9 19 -21 16 -30 -8 -20 33 -58 63 -60
28 -2 52 -32 45 -56 -3 -9 4 -29 15 -43 12 -15 21 -38 21 -53 0 -28 -37 -137
-65 -190 -9 -19 -15 -42 -12 -52 3 -12 0 -19 -8 -19 -32 0 -17 -121 25 -202
10 -20 16 -46 13 -57 -6 -24 24 -131 37 -131 6 0 10 -11 10 -24 0 -13 22 -53
49 -90 32 -43 51 -81 55 -106 3 -22 9 -58 12 -80 6 -43 45 -97 98 -139 48 -37
58 -57 64 -128 7 -91 12 -93 197 -92 82 1 141 3 130 6 -46 10 -51 14 -32 24
20 12 87 5 116 -11 27 -14 209 -24 224 -12 16 13 96 22 102 12 3 -5 -1 -11 -7
-13 -7 -3 227 -6 520 -6 l532 -1 0 978 c0 537 -4 982 -8 987 -4 6 -18 11 -32
11 -28 1 -167 34 -320 74 -19 5 -66 7 -104 5 -48 -3 -78 1 -97 11 -15 8 -42
14 -59 14 -17 0 -48 9 -70 20 -22 11 -55 20 -73 20 -19 0 -40 7 -47 15 -14 17
-40 20 -40 4 0 -6 -13 -1 -28 10 -18 12 -33 17 -42 11 -7 -4 -23 -5 -34 0 -12
4 -39 13 -61 20 -58 19 -423 174 -795 337 -69 30 -161 71 -205 90 -44 19 -110
48 -146 64 -66 29 -66 29 -267 29 l-202 0 0 -1350z m912 651 c13 -5 32 -12 42
-16 18 -5 18 -7 -7 -20 -25 -13 -64 -18 -115 -16 -29 1 -47 43 -23 53 24 10
77 9 103 -1z m801 -30 c27 -14 36 -31 17 -31 -16 0 -60 31 -60 42 0 5 3 8 8 6
4 -2 19 -10 35 -17z m266 -195 c12 -13 37 -31 55 -41 18 -10 38 -26 45 -36 9
-16 8 -19 -10 -19 -11 0 -27 -7 -35 -15 -30 -29 -83 27 -97 103 -8 39 9 43 42
8z m65 -258 c9 -12 16 -29 16 -37 0 -7 9 -23 20 -35 56 -60 70 -78 64 -88 -4
-6 4 -19 17 -28 18 -14 21 -21 11 -32 -8 -10 -9 -25 -2 -50 6 -19 11 -63 13
-98 2 -50 -1 -68 -14 -81 -10 -10 -15 -26 -12 -38 4 -15 -2 -24 -21 -32 -14
-7 -26 -20 -26 -31 0 -10 -8 -19 -17 -19 -17 -1 -17 -2 0 -6 26 -7 15 -28 -14
-28 -23 0 -24 3 -25 65 -1 36 3 73 8 83 7 13 4 25 -9 44 -35 50 -53 78 -70
111 -9 17 -20 32 -25 32 -4 0 -8 5 -8 12 0 6 -6 19 -14 27 -7 9 -16 31 -19 49
-6 30 -5 32 18 26 22 -5 25 -3 25 21 0 14 -5 35 -10 46 -9 16 -7 21 15 29 30
11 33 36 5 45 -11 3 -20 11 -20 16 0 5 9 9 20 9 11 0 20 7 20 15 0 21 33 4 54
-27z m-571 -223 c113 -2 130 -5 150 -23 12 -11 33 -25 47 -30 14 -6 34 -27 45
-48 11 -22 22 -41 25 -44 4 -3 12 -31 20 -62 12 -53 12 -60 -5 -78 -10 -11
-23 -16 -31 -12 -18 10 -64 80 -64 97 0 8 -4 16 -9 19 -5 3 -7 14 -5 24 3 9
-1 24 -8 33 -11 14 -26 15 -93 10 -44 -4 -109 -6 -145 -5 -36 1 -130 2 -210 3
-80 1 -152 6 -160 11 -13 8 -12 14 4 45 11 20 29 42 40 48 32 17 113 26 196
20 41 -3 133 -6 203 -8z m704 -417 c-3 -8 -6 -5 -6 6 -1 11 2 17 5 13 3 -3 4
-12 1 -19z m-36 -1 c-1 -12 -15 -9 -19 4 -3 6 1 10 8 8 6 -3 11 -8 11 -12z
m14 -59 c28 -13 33 -28 9 -28 -12 0 -14 -4 -7 -12 6 -7 13 -28 16 -45 5 -25 3
-33 -8 -33 -7 0 -15 10 -17 22 -3 21 -48 38 -48 18 0 -6 -4 -10 -10 -10 -16 0
-11 30 11 66 24 39 20 38 54 22z m45 -52 c0 -3 -4 -8 -10 -11 -5 -3 -10 -1
-10 4 0 6 5 11 10 11 6 0 10 -2 10 -4z m6 -61 c1 -8 -2 -13 -7 -9 -5 3 -9 12
-9 21 0 19 13 9 16 -12z m-56 -57 c0 -5 -10 -6 -22 -2 -13 4 -28 7 -35 7 -7 0
-10 3 -8 7 6 10 65 -1 65 -12z m128 -12 c29 -15 38 -32 32 -61 -1 -5 6 -14 14
-21 30 -21 24 -184 -6 -184 -4 0 -8 -9 -8 -21 0 -35 -23 -15 -27 24 -3 29 0
37 13 37 13 0 14 3 4 15 -10 12 -10 18 -1 29 19 23 -5 29 -34 10 -20 -13 -25
-23 -20 -41 3 -13 1 -23 -5 -23 -5 0 -10 -7 -10 -15 0 -8 -19 -24 -42 -36 -42
-21 -56 -35 -143 -134 -22 -26 -53 -53 -70 -60 -16 -7 -45 -25 -64 -39 -19
-14 -50 -29 -69 -32 -29 -6 -38 -3 -53 17 -16 22 -31 26 -101 28 -36 1 -68 33
-61 60 3 12 8 21 12 21 3 0 17 20 31 44 25 46 54 66 95 66 23 0 50 -19 57 -40
10 -32 72 27 114 108 9 17 22 32 30 32 7 0 21 15 30 33 18 33 35 54 119 142
63 66 98 75 163 41z m-255 -92 c-4 -13 -26 -11 -30 3 -2 6 4 10 14 9 10 -2 17
-7 16 -12z m-949 -295 c44 -16 108 -101 104 -136 -3 -26 -6 -28 -48 -25 -79 5
-86 9 -113 64 -14 29 -28 65 -31 81 -4 25 -2 27 26 27 18 0 45 -5 62 -11z
m606 -168 c0 -15 -27 -32 -44 -26 -9 3 -23 7 -32 10 -8 3 -12 9 -9 15 8 12 85
13 85 1z"/>
</g>
</svg>
